<svg width="28" height="14" viewBox="0 0 28 14" fill="none" xmlns="http://www.w3.org/2000/svg">
<g clip-path="url(#clip0)">
<path d="M0 11.0833V14H2.91667L11.5208 5.39583L8.60417 2.47917L0 11.0833ZM13.7812 2.04167L11.9583 0.21875C11.6667 -0.0729167 11.1562 -0.0729167 10.8646 0.21875L9.44271 1.64062L12.3594 4.55729L13.7812 3.13542C14.0729 2.84375 14.0729 2.33333 13.7812 2.04167Z" fill="black"/>
<path d="M23.0417 7.03924L27.7083 2.22674V1.93507L25.9583 0.185072C25.914 0.159473 25.8637 0.145996 25.8125 0.145996C25.7613 0.145996 25.711 0.159473 25.6667 0.185072L20.8542 4.85174L16.0417 0.185072H15.75L14 1.93507V2.22674L18.6667 7.03924L14 11.8517V12.1434L15.75 13.8934C15.7943 13.919 15.8446 13.9325 15.8958 13.9325C15.947 13.9325 15.9973 13.919 16.0417 13.8934L20.8542 9.22674L25.6667 13.8934C25.711 13.919 25.7613 13.9325 25.8125 13.9325C25.8637 13.9325 25.914 13.919 25.9583 13.8934L27.7083 12.1434V11.8517L23.0417 7.03924Z" fill="black"/>
</g>
<defs>
<clipPath id="clip0">
<rect width="27.7083" height="14" fill="white"/>
</clipPath>
</defs>
</svg>
